<svg width="634" height="634" viewBox="0 0 634 634" fill="none" xmlns="http://www.w3.org/2000/svg">
<circle cx="317" cy="317" r="317" fill="#F26235"/>
<path d="M480.75 373.019C471.786 358.504 459.117 346.64 444.047 338.646C428.977 330.652 412.049 326.817 395.005 327.535C382.135 328.325 369.582 331.851 358.182 337.876C346.782 343.902 336.799 352.289 328.897 362.478C330.301 364.772 331.824 366.948 333.089 369.34L350.472 402.009L353.121 396.986C357.168 388.629 363.316 381.467 370.963 376.201C378.61 370.935 387.495 367.746 396.745 366.948C404.306 366.664 411.846 367.908 418.914 370.606C425.983 373.303 432.434 377.399 437.884 382.648C443.333 387.896 447.667 394.19 450.628 401.152C453.589 408.115 455.115 415.603 455.115 423.169C455.115 430.735 453.589 438.223 450.628 445.185C447.667 452.148 443.333 458.441 437.884 463.69C432.434 468.939 425.983 473.034 418.914 475.732C411.846 478.429 404.306 479.674 396.745 479.39C387.499 478.594 378.619 475.408 370.975 470.145C363.33 464.883 357.185 457.724 353.141 449.371L339.22 423.189L315.628 378.496C308.349 364.036 297.425 351.723 283.935 342.773C270.445 333.822 254.855 328.543 238.703 327.456C225.804 326.932 212.932 329.019 200.86 333.594C188.788 338.169 177.765 345.136 168.453 354.077C159.141 363.018 151.731 373.749 146.67 385.626C141.609 397.502 139 410.279 139 423.189C139 436.098 141.609 448.875 146.67 460.751C151.731 472.628 159.141 483.359 168.453 492.3C177.765 501.241 188.788 508.208 200.86 512.783C212.932 517.358 225.804 519.445 238.703 518.921C251.573 518.131 264.126 514.606 275.526 508.58C286.925 502.554 296.909 494.167 304.811 483.978C303.407 481.684 301.884 479.509 300.619 477.116L283.236 444.368L280.586 449.391C276.54 457.748 270.392 464.91 262.745 470.176C255.097 475.442 246.213 478.631 236.963 479.43C226.878 479.853 216.864 477.564 207.964 472.803C199.064 468.042 191.603 460.981 186.358 452.357C180.999 443.586 178.163 433.507 178.163 423.228C178.163 412.949 180.999 402.87 186.358 394.099C191.403 385.81 198.494 378.958 206.951 374.199C215.408 369.441 224.946 366.937 234.649 366.928H237.042C246.288 367.724 255.168 370.91 262.812 376.172C270.457 381.435 276.602 388.594 280.646 396.947L294.488 423.189L318.08 467.881C325.359 482.341 336.283 494.654 349.773 503.604C363.262 512.555 378.853 517.834 395.005 518.921H399.138C416.164 518.904 432.878 514.35 447.561 505.73C462.243 497.109 474.364 484.732 482.676 469.873C490.988 455.013 495.191 438.207 494.852 421.184C494.514 404.161 489.646 387.536 480.75 373.019Z" fill="white"/>
<g filter="url(#filter0_d_135_13)">
<path d="M191.709 294.98L316.261 115L444.553 294.98L317.807 251.452L191.709 294.98Z" stroke="white" stroke-width="33.2407" shape-rendering="crispEdges"/>
</g>
<defs>
<filter id="filter0_d_135_13" x="44.0244" y="33.6042" width="548.917" height="451.249" filterUnits="userSpaceOnUse" color-interpolation-filters="sRGB">
<feFlood flood-opacity="0" result="BackgroundImageFix"/>
<feColorMatrix in="SourceAlpha" type="matrix" values="0 0 0 0 0 0 0 0 0 0 0 0 0 0 0 0 0 0 127 0" result="hardAlpha"/>
<feOffset dy="52.4809"/>
<feGaussianBlur stdDeviation="52.4809"/>
<feComposite in2="hardAlpha" operator="out"/>
<feColorMatrix type="matrix" values="0 0 0 0 0 0 0 0 0 0 0 0 0 0 0 0 0 0 0.25 0"/>
<feBlend mode="normal" in2="BackgroundImageFix" result="effect1_dropShadow_135_13"/>
<feBlend mode="normal" in="SourceGraphic" in2="effect1_dropShadow_135_13" result="shape"/>
</filter>
</defs>
</svg>
